<svg width="42" height="43" viewBox="0 0 42 43" fill="none" xmlns="http://www.w3.org/2000/svg">
<path d="M37.5 0.162292H4.5C2.01562 0.162292 0 2.17792 0 4.66229V37.6623C0 40.1467 2.01562 42.1623 4.5 42.1623H37.5C39.9844 42.1623 42 40.1467 42 37.6623V4.66229C42 2.17792 39.9844 0.162292 37.5 0.162292ZM32.9156 15.0498C32.9344 15.3123 32.9344 15.5842 32.9344 15.8467C32.9344 23.9748 26.7469 33.3404 15.4406 33.3404C11.9531 33.3404 8.71875 32.3279 6 30.5842C6.49687 30.6404 6.975 30.6592 7.48125 30.6592C10.3594 30.6592 13.0031 29.6842 15.1125 28.0342C12.4125 27.9779 10.1438 26.206 9.36563 23.7685C10.3125 23.9092 11.1656 23.9092 12.1406 23.656C9.32812 23.0842 7.21875 20.6092 7.21875 17.6185V17.5435C8.03438 18.0029 8.99062 18.2842 9.99375 18.3217C9.1504 17.7607 8.45905 16.9997 7.98138 16.1065C7.50371 15.2133 7.25459 14.2158 7.25625 13.2029C7.25625 12.0592 7.55625 11.0092 8.09063 10.0998C11.1188 13.831 15.6656 16.2685 20.7656 16.531C19.8937 12.3592 23.0156 8.97479 26.7656 8.97479C28.5375 8.97479 30.1312 9.71542 31.2562 10.9154C32.6437 10.6529 33.975 10.1373 35.1562 9.43417C34.6969 10.8592 33.7313 12.0592 32.4563 12.8185C33.6938 12.6873 34.8937 12.3404 36 11.8623C35.1656 13.0904 34.1156 14.1779 32.9156 15.0498Z" fill="white"/>
</svg>
