<svg width="33" height="33" viewBox="0 0 33 33" fill="none" xmlns="http://www.w3.org/2000/svg">
<path d="M18.9692 30.0097L17.3341 31.6448C16.6418 32.3371 15.5223 32.3371 14.8373 31.6448L0.51925 17.3341C-0.173083 16.6418 -0.173083 15.5223 0.51925 14.8373L14.8373 0.51925C15.5296 -0.173083 16.6491 -0.173083 17.3341 0.51925L18.9692 2.15434C19.6689 2.85403 19.6542 3.99565 18.9397 4.68062L10.0646 13.1359H31.2323C32.2119 13.1359 33 13.924 33 14.9036V17.2605C33 18.24 32.2119 19.0281 31.2323 19.0281H10.0646L18.9397 27.4834C19.6615 28.1684 19.6763 29.31 18.9692 30.0097Z" fill="white"/>
</svg>
