<svg width="42" height="43" viewBox="0 0 42 43" fill="none" xmlns="http://www.w3.org/2000/svg">
<path d="M21 0.162292C9.39919 0.162292 0 9.56149 0 21.1623C0 32.7631 9.39919 42.1623 21 42.1623C32.6008 42.1623 42 32.7631 42 21.1623C42 9.56149 32.6008 0.162292 21 0.162292ZM21 8.29132C25.1153 8.29132 28.4516 11.6276 28.4516 15.7429C28.4516 19.8583 25.1153 23.1946 21 23.1946C16.8847 23.1946 13.5484 19.8583 13.5484 15.7429C13.5484 11.6276 16.8847 8.29132 21 8.29132ZM21 37.4204C16.0294 37.4204 11.5754 35.1679 8.59476 31.6454C10.1867 28.6478 13.3028 26.5816 16.9355 26.5816C17.1387 26.5816 17.3419 26.6155 17.5367 26.6748C18.6375 27.0304 19.7891 27.2591 21 27.2591C22.2109 27.2591 23.371 27.0304 24.4633 26.6748C24.6581 26.6155 24.8613 26.5816 25.0645 26.5816C28.6972 26.5816 31.8133 28.6478 33.4052 31.6454C30.4246 35.1679 25.9706 37.4204 21 37.4204Z" fill="white"/>
</svg>
