<svg width="46" height="46" viewBox="0 0 46 46" fill="none" xmlns="http://www.w3.org/2000/svg">
<path d="M44.9496 39.4044L36.0754 30.5301C35.6749 30.1296 35.1319 29.9071 34.5623 29.9071H33.1114C35.5681 26.7651 37.0278 22.8131 37.0278 18.5139C37.0278 8.28675 28.7411 0 18.5139 0C8.28675 0 0 8.28675 0 18.5139C0 28.7411 8.28675 37.0278 18.5139 37.0278C22.813 37.0278 26.7651 35.5681 29.9071 33.1114V34.5623C29.9071 35.1319 30.1296 35.6749 30.5301 36.0754L39.4044 44.9496C40.241 45.7863 41.594 45.7863 42.4218 44.9496L44.9407 42.4307C45.7774 41.594 45.7774 40.241 44.9496 39.4044ZM18.5139 29.9071C12.221 29.9071 7.12073 24.8158 7.12073 18.5139C7.12073 12.221 12.2121 7.12073 18.5139 7.12073C24.8069 7.12073 29.9071 12.2121 29.9071 18.5139C29.9071 24.8069 24.8158 29.9071 18.5139 29.9071Z" fill="black"/>
</svg>
