<svg width="56" height="49" viewBox="0 0 56 49" fill="none" xmlns="http://www.w3.org/2000/svg">
<path d="M1.97023 8.86601H53.1961C54.2843 8.86601 55.1663 7.98397 55.1663 6.89579V1.97023C55.1663 0.882045 54.2843 0 53.1961 0H1.97023C0.882045 0 0 0.882045 0 1.97023V6.89579C0 7.98397 0.882045 8.86601 1.97023 8.86601ZM1.97023 28.5683H53.1961C54.2843 28.5683 55.1663 27.6862 55.1663 26.598V21.6725C55.1663 20.5843 54.2843 19.7023 53.1961 19.7023H1.97023C0.882045 19.7023 0 20.5843 0 21.6725V26.598C0 27.6862 0.882045 28.5683 1.97023 28.5683ZM1.97023 48.2705H53.1961C54.2843 48.2705 55.1663 47.3885 55.1663 46.3003V41.3747C55.1663 40.2866 54.2843 39.4045 53.1961 39.4045H1.97023C0.882045 39.4045 0 40.2866 0 41.3747V46.3003C0 47.3885 0.882045 48.2705 1.97023 48.2705Z" fill="white"/>
</svg>
