<svg width="44" height="44" viewBox="0 0 44 44" fill="none" xmlns="http://www.w3.org/2000/svg">
<path d="M21.943 16.5944C20.9273 16.5948 19.9346 16.8964 19.0902 17.4609C18.2459 18.0255 17.5879 18.8278 17.1995 19.7662C16.811 20.7047 16.7096 21.7373 16.908 22.7335C17.1064 23.7296 17.5957 24.6446 18.314 25.3626C19.0324 26.0807 19.9475 26.5697 20.9437 26.7677C21.9399 26.9657 22.9725 26.8639 23.9108 26.4751C24.8492 26.0863 25.6512 25.428 26.2154 24.5835C26.7797 23.7389 27.0809 22.746 27.0809 21.7303C27.0798 20.3682 26.5381 19.0622 25.5748 18.0992C24.6114 17.1362 23.3052 16.595 21.943 16.5944ZM33.9509 12.6467C33.6894 11.9841 33.2946 11.3823 32.7909 10.8786C32.2872 10.3749 31.6854 9.98013 31.0228 9.71867C29.0008 8.92046 24.1865 9.09955 21.943 9.09955C19.6996 9.09955 14.8901 8.91372 12.8623 9.71867C12.1997 9.98013 11.5979 10.3749 11.0942 10.8786C10.5905 11.3823 10.1957 11.9841 9.93426 12.6467C9.13702 14.6687 9.31515 19.4878 9.31515 21.7294C9.31515 23.9709 9.13702 28.7842 9.93812 30.813C10.1996 31.4756 10.5944 32.0774 11.0981 32.5811C11.6018 33.0848 12.2036 33.4796 12.8662 33.741C14.8882 34.5392 19.7025 34.3602 21.9469 34.3602C24.1913 34.3602 28.9989 34.546 31.0267 33.741C31.6893 33.4796 32.2911 33.0848 32.7947 32.5811C33.2984 32.0774 33.6932 31.4756 33.9547 30.813C34.7587 28.791 34.5738 23.9719 34.5738 21.7303C34.5738 19.4888 34.7587 14.6764 33.9547 12.6477L33.9509 12.6467ZM21.943 29.6258C20.3815 29.6258 18.855 29.1627 17.5566 28.2952C16.2582 27.4276 15.2462 26.1945 14.6486 24.7518C14.051 23.3091 13.8947 21.7216 14.1993 20.19C14.504 18.6584 15.2559 17.2516 16.3601 16.1474C17.4643 15.0432 18.8711 14.2912 20.4027 13.9866C21.9343 13.682 23.5218 13.8383 24.9645 14.4359C26.4072 15.0335 27.6403 16.0455 28.5079 17.3439C29.3754 18.6423 29.8385 20.1688 29.8385 21.7303C29.8398 22.7675 29.6364 23.7948 29.2401 24.7533C28.8437 25.7118 28.2622 26.5827 27.5288 27.3161C26.7954 28.0495 25.9245 28.631 24.966 29.0274C24.0075 29.4237 22.9802 29.627 21.943 29.6258ZM30.1639 15.3466C29.7994 15.3468 29.443 15.2388 29.1398 15.0365C28.8366 14.8341 28.6002 14.5463 28.4606 14.2096C28.321 13.8729 28.2843 13.5023 28.3553 13.1447C28.4263 12.7872 28.6018 12.4587 28.8595 12.2009C29.1172 11.943 29.4456 11.7674 29.8031 11.6962C30.1606 11.625 30.5312 11.6615 30.868 11.8009C31.2048 11.9404 31.4927 12.1766 31.6952 12.4797C31.8978 12.7828 32.0059 13.1391 32.0059 13.5037C32.0069 13.7457 31.9601 13.9856 31.8682 14.2096C31.7763 14.4335 31.6411 14.6371 31.4703 14.8087C31.2995 14.9803 31.0966 15.1165 30.873 15.2094C30.6495 15.3024 30.4099 15.3503 30.1678 15.3504L30.1639 15.3466ZM38.8894 0.162292H4.99672C3.77097 0.162292 2.59541 0.649223 1.72867 1.51596C0.86193 2.38271 0.375 3.55826 0.375 4.78402L0.375 38.6767C0.375 39.9024 0.86193 41.078 1.72867 41.9447C2.59541 42.8114 3.77097 43.2984 4.99672 43.2984H38.8894C40.1151 43.2984 41.2907 42.8114 42.1574 41.9447C43.0242 41.078 43.5111 39.9024 43.5111 38.6767V4.78402C43.5111 3.55826 43.0242 2.38271 42.1574 1.51596C41.2907 0.649223 40.1151 0.162292 38.8894 0.162292ZM37.2409 28.0852C37.1167 30.553 36.5535 32.7397 34.752 34.5364C32.9504 36.333 30.7657 36.9079 28.3008 37.0253C25.7579 37.1688 18.134 37.1688 15.5911 37.0253C13.1233 36.9011 10.9443 36.3369 9.1399 34.5364C7.33551 32.7358 6.76838 30.5482 6.65091 28.0852C6.50745 25.5413 6.50745 17.9164 6.65091 15.3755C6.77512 12.9077 7.33166 10.721 9.1399 8.92431C10.9482 7.12761 13.1329 6.55953 15.5911 6.44206C18.134 6.29859 25.7579 6.29859 28.3008 6.44206C30.7686 6.56627 32.9543 7.1305 34.752 8.93105C36.5496 10.7316 37.1235 12.9192 37.2409 15.387C37.3844 17.9213 37.3844 25.5394 37.2409 28.0852Z" fill="white"/>
</svg>
