<svg width="106" height="106" viewBox="0 0 106 106" fill="none" xmlns="http://www.w3.org/2000/svg">
<path fill-rule="evenodd" clip-rule="evenodd" d="M69.0729 69.073C69.6872 68.458 70.4168 67.9701 71.2198 67.6372C72.0228 67.3043 72.8836 67.1329 73.7529 67.1329C74.6222 67.1329 75.483 67.3043 76.286 67.6372C77.0891 67.9701 77.8186 68.458 78.433 69.073L103.9 94.5404C105.142 95.7808 105.839 97.4634 105.84 99.2182C105.841 100.973 105.144 102.656 103.904 103.897C102.663 105.138 100.981 105.836 99.226 105.837C97.4712 105.837 95.7881 105.141 94.5469 103.901L69.0795 78.4331C68.4644 77.8188 67.9765 77.0892 67.6436 76.2862C67.3107 75.4832 67.1394 74.6224 67.1394 73.7531C67.1394 72.8838 67.3107 72.023 67.6436 71.22C67.9765 70.4169 68.4644 69.6874 69.0795 69.073H69.0729Z" fill="black"/>
<path fill-rule="evenodd" clip-rule="evenodd" d="M42.997 79.379C47.7747 79.379 52.5057 78.4379 56.9198 76.6096C61.3338 74.7812 65.3446 72.1013 68.7229 68.7229C72.1013 65.3446 74.7812 61.3338 76.6096 56.9198C78.438 52.5057 79.379 47.7747 79.379 42.997C79.379 38.2192 78.438 33.4882 76.6096 29.0742C74.7812 24.6601 72.1013 20.6494 68.7229 17.271C65.3446 13.8926 61.3338 11.2127 56.9198 9.38433C52.5057 7.55597 47.7747 6.61492 42.997 6.61492C33.3478 6.61492 24.0939 10.448 17.271 17.271C10.448 24.0939 6.61492 33.3478 6.61492 42.997C6.61492 52.6461 10.448 61.9 17.271 68.7229C24.0939 75.5459 33.3478 79.379 42.997 79.379V79.379ZM85.9939 42.997C85.9939 54.4005 81.4639 65.3369 73.4004 73.4004C65.3369 81.4639 54.4005 85.9939 42.997 85.9939C31.5935 85.9939 20.657 81.4639 12.5935 73.4004C4.53002 65.3369 0 54.4005 0 42.997C0 31.5935 4.53002 20.657 12.5935 12.5935C20.657 4.53002 31.5935 0 42.997 0C54.4005 0 65.3369 4.53002 73.4004 12.5935C81.4639 20.657 85.9939 31.5935 85.9939 42.997V42.997Z" fill="black"/>
</svg>
